<svg xmlns="http://www.w3.org/2000/svg" xmlns:xlink="http://www.w3.org/1999/xlink" width="500" zoomAndPan="magnify" viewBox="0 0 375 374.999991" height="500" preserveAspectRatio="xMidYMid meet" version="1.0"><defs><g/></defs><rect x="-37.5" width="450" fill="#ffffff" y="-37.499999" height="449.999989" fill-opacity="1"/><rect x="-37.5" width="450" fill="#ffffff" y="-37.499999" height="449.999989" fill-opacity="1"/><g fill="#000000" fill-opacity="1"><g transform="translate(35.317305, 201.761417)"><g><path d="M 4.8125 -49.90625 C 6.101562 -51.195312 7.644531 -51.84375 9.4375 -51.84375 C 11.226562 -51.84375 12.765625 -51.195312 14.046875 -49.90625 C 15.335938 -48.613281 15.984375 -47.070312 15.984375 -45.28125 C 15.984375 -43.5 15.335938 -41.960938 14.046875 -40.671875 C 12.765625 -39.378906 11.226562 -38.734375 9.4375 -38.734375 C 7.644531 -38.734375 6.101562 -39.378906 4.8125 -40.671875 C 3.519531 -41.960938 2.875 -43.5 2.875 -45.28125 C 2.875 -47.070312 3.519531 -48.613281 4.8125 -49.90625 Z M 3.75 -32.046875 L 3.75 0 L 14.8125 0 L 14.8125 -32.046875 Z M 3.75 -32.046875 "/></g></g></g><g fill="#000000" fill-opacity="1"><g transform="translate(48.307011, 201.761417)"><g><path d="M 3.75 0 L 3.75 -32.046875 L 14.8125 -32.046875 L 14.8125 -28.671875 L 14.9375 -28.671875 C 17.800781 -31.546875 20.859375 -32.984375 24.109375 -32.984375 C 25.691406 -32.984375 27.265625 -32.773438 28.828125 -32.359375 C 30.390625 -31.941406 31.890625 -31.296875 33.328125 -30.421875 C 34.765625 -29.546875 35.929688 -28.304688 36.828125 -26.703125 C 37.722656 -25.097656 38.171875 -23.234375 38.171875 -21.109375 L 38.171875 0 L 27.109375 0 L 27.109375 -18.109375 C 27.109375 -19.773438 26.578125 -21.234375 25.515625 -22.484375 C 24.453125 -23.734375 23.066406 -24.359375 21.359375 -24.359375 C 19.691406 -24.359375 18.179688 -23.710938 16.828125 -22.421875 C 15.484375 -21.128906 14.8125 -19.691406 14.8125 -18.109375 L 14.8125 0 Z M 3.75 0 "/></g></g></g><g fill="#000000" fill-opacity="1"><g transform="translate(83.719388, 201.761417)"><g><path d="M 3.75 0 L 3.75 -32.046875 L 14.8125 -32.046875 L 14.8125 -28.671875 L 14.9375 -28.671875 C 17.800781 -31.546875 20.859375 -32.984375 24.109375 -32.984375 C 25.691406 -32.984375 27.265625 -32.773438 28.828125 -32.359375 C 30.390625 -31.941406 31.890625 -31.296875 33.328125 -30.421875 C 34.765625 -29.546875 35.929688 -28.304688 36.828125 -26.703125 C 37.722656 -25.097656 38.171875 -23.234375 38.171875 -21.109375 L 38.171875 0 L 27.109375 0 L 27.109375 -18.109375 C 27.109375 -19.773438 26.578125 -21.234375 25.515625 -22.484375 C 24.453125 -23.734375 23.066406 -24.359375 21.359375 -24.359375 C 19.691406 -24.359375 18.179688 -23.710938 16.828125 -22.421875 C 15.484375 -21.128906 14.8125 -19.691406 14.8125 -18.109375 L 14.8125 0 Z M 3.75 0 "/></g></g></g><g fill="#000000" fill-opacity="1"><g transform="translate(119.131766, 201.761417)"><g><path d="M 6.78125 -3.8125 C 3.21875 -6.976562 1.4375 -11.035156 1.4375 -15.984375 C 1.4375 -20.941406 3.289062 -25.015625 7 -28.203125 C 10.707031 -31.390625 15.285156 -32.984375 20.734375 -32.984375 C 26.109375 -32.984375 30.640625 -31.378906 34.328125 -28.171875 C 38.015625 -24.960938 39.859375 -20.898438 39.859375 -15.984375 C 39.859375 -11.078125 38.054688 -7.03125 34.453125 -3.84375 C 30.847656 -0.65625 26.273438 0.9375 20.734375 0.9375 C 14.992188 0.9375 10.34375 -0.644531 6.78125 -3.8125 Z M 15.328125 -21.421875 C 13.898438 -20.003906 13.1875 -18.191406 13.1875 -15.984375 C 13.1875 -13.785156 13.867188 -11.988281 15.234375 -10.59375 C 16.609375 -9.195312 18.421875 -8.5 20.671875 -8.5 C 22.835938 -8.5 24.617188 -9.207031 26.015625 -10.625 C 27.410156 -12.039062 28.109375 -13.828125 28.109375 -15.984375 C 28.109375 -18.191406 27.390625 -20.003906 25.953125 -21.421875 C 24.515625 -22.835938 22.753906 -23.546875 20.671875 -23.546875 C 18.546875 -23.546875 16.765625 -22.835938 15.328125 -21.421875 Z M 15.328125 -21.421875 "/></g></g></g><g fill="#ff9800" fill-opacity="1"><g transform="translate(154.544884, 201.761417)"><g><path d="M 23.421875 0 L 15.921875 0 L -1.25 -32.046875 L 11.5 -32.046875 L 19.296875 -14.75 L 26.984375 -32.046875 L 34.609375 -32.046875 L 42.296875 -14.75 L 50.09375 -32.046875 L 62.84375 -32.046875 L 45.671875 0 L 38.171875 0 L 30.796875 -16.546875 Z M 23.421875 0 "/></g></g></g><g fill="#ff9800" fill-opacity="1"><g transform="translate(210.256341, 201.761417)"><g><path d="M 6.78125 -3.8125 C 3.21875 -6.976562 1.4375 -11.035156 1.4375 -15.984375 C 1.4375 -20.941406 3.289062 -25.015625 7 -28.203125 C 10.707031 -31.390625 15.285156 -32.984375 20.734375 -32.984375 C 26.109375 -32.984375 30.640625 -31.378906 34.328125 -28.171875 C 38.015625 -24.960938 39.859375 -20.898438 39.859375 -15.984375 C 39.859375 -11.078125 38.054688 -7.03125 34.453125 -3.84375 C 30.847656 -0.65625 26.273438 0.9375 20.734375 0.9375 C 14.992188 0.9375 10.34375 -0.644531 6.78125 -3.8125 Z M 15.328125 -21.421875 C 13.898438 -20.003906 13.1875 -18.191406 13.1875 -15.984375 C 13.1875 -13.785156 13.867188 -11.988281 15.234375 -10.59375 C 16.609375 -9.195312 18.421875 -8.5 20.671875 -8.5 C 22.835938 -8.5 24.617188 -9.207031 26.015625 -10.625 C 27.410156 -12.039062 28.109375 -13.828125 28.109375 -15.984375 C 28.109375 -18.191406 27.390625 -20.003906 25.953125 -21.421875 C 24.515625 -22.835938 22.753906 -23.546875 20.671875 -23.546875 C 18.546875 -23.546875 16.765625 -22.835938 15.328125 -21.421875 Z M 15.328125 -21.421875 "/></g></g></g><g fill="#ff9800" fill-opacity="1"><g transform="translate(245.668718, 201.761417)"><g><path d="M 6.78125 -3.8125 C 3.21875 -6.976562 1.4375 -11.035156 1.4375 -15.984375 C 1.4375 -20.941406 3.289062 -25.015625 7 -28.203125 C 10.707031 -31.390625 15.285156 -32.984375 20.734375 -32.984375 C 26.109375 -32.984375 30.640625 -31.378906 34.328125 -28.171875 C 38.015625 -24.960938 39.859375 -20.898438 39.859375 -15.984375 C 39.859375 -11.078125 38.054688 -7.03125 34.453125 -3.84375 C 30.847656 -0.65625 26.273438 0.9375 20.734375 0.9375 C 14.992188 0.9375 10.34375 -0.644531 6.78125 -3.8125 Z M 15.328125 -21.421875 C 13.898438 -20.003906 13.1875 -18.191406 13.1875 -15.984375 C 13.1875 -13.785156 13.867188 -11.988281 15.234375 -10.59375 C 16.609375 -9.195312 18.421875 -8.5 20.671875 -8.5 C 22.835938 -8.5 24.617188 -9.207031 26.015625 -10.625 C 27.410156 -12.039062 28.109375 -13.828125 28.109375 -15.984375 C 28.109375 -18.191406 27.390625 -20.003906 25.953125 -21.421875 C 24.515625 -22.835938 22.753906 -23.546875 20.671875 -23.546875 C 18.546875 -23.546875 16.765625 -22.835938 15.328125 -21.421875 Z M 15.328125 -21.421875 "/></g></g></g><g fill="#ff9800" fill-opacity="1"><g transform="translate(281.081089, 201.761417)"><g><path d="M 5.9375 -3.96875 C 2.9375 -7.238281 1.4375 -11.242188 1.4375 -15.984375 C 1.4375 -20.734375 2.9375 -24.753906 5.9375 -28.046875 C 8.9375 -31.335938 12.742188 -32.984375 17.359375 -32.984375 C 21.609375 -32.984375 25.109375 -31.648438 27.859375 -28.984375 L 27.859375 -53.71875 L 38.921875 -53.71875 L 38.921875 0 L 27.984375 0 L 27.984375 -3.625 L 27.859375 -3.625 C 25.109375 -0.582031 21.609375 0.9375 17.359375 0.9375 C 12.742188 0.9375 8.9375 -0.695312 5.9375 -3.96875 Z M 15.328125 -21.421875 C 13.898438 -20.003906 13.1875 -18.191406 13.1875 -15.984375 C 13.1875 -13.785156 13.867188 -11.988281 15.234375 -10.59375 C 16.609375 -9.195312 18.421875 -8.5 20.671875 -8.5 C 22.835938 -8.5 24.617188 -9.207031 26.015625 -10.625 C 27.410156 -12.039062 28.109375 -13.828125 28.109375 -15.984375 C 28.109375 -18.191406 27.390625 -20.003906 25.953125 -21.421875 C 24.515625 -22.835938 22.753906 -23.546875 20.671875 -23.546875 C 18.546875 -23.546875 16.765625 -22.835938 15.328125 -21.421875 Z M 15.328125 -21.421875 "/></g></g></g><g fill="#000000" fill-opacity="1"><g transform="translate(317.875236, 201.761417)"><g><path d="M 10.875 -13.375 C 12.875 -13.375 14.566406 -12.675781 15.953125 -11.28125 C 17.347656 -9.882812 18.046875 -8.1875 18.046875 -6.1875 C 18.046875 -4.226562 17.347656 -2.550781 15.953125 -1.15625 C 14.566406 0.238281 12.875 0.9375 10.875 0.9375 C 8.914062 0.9375 7.238281 0.238281 5.84375 -1.15625 C 4.445312 -2.550781 3.75 -4.226562 3.75 -6.1875 C 3.75 -8.1875 4.445312 -9.882812 5.84375 -11.28125 C 7.238281 -12.675781 8.914062 -13.375 10.875 -13.375 Z M 10.875 -13.375 "/></g></g></g></svg>