<svg xmlns="http://www.w3.org/2000/svg" xmlns:xlink="http://www.w3.org/1999/xlink" width="500" zoomAndPan="magnify" viewBox="0 0 375 374.999991" height="500" preserveAspectRatio="xMidYMid meet" version="1.0"><defs><g/></defs><rect x="-37.5" width="450" fill="#ffffff" y="-37.499999" height="449.999989" fill-opacity="1"/><rect x="-37.5" width="450" fill="#ffffff" y="-37.499999" height="449.999989" fill-opacity="1"/><g fill="#000000" fill-opacity="1"><g transform="translate(72.487435, 167.289539)"><g><path d="M 6.171875 -64 C 7.828125 -65.65625 9.800781 -66.484375 12.09375 -66.484375 C 14.382812 -66.484375 16.359375 -65.65625 18.015625 -64 C 19.671875 -62.34375 20.5 -60.363281 20.5 -58.0625 C 20.5 -55.769531 19.671875 -53.796875 18.015625 -52.140625 C 16.359375 -50.484375 14.382812 -49.65625 12.09375 -49.65625 C 9.800781 -49.65625 7.828125 -50.484375 6.171875 -52.140625 C 4.515625 -53.796875 3.6875 -55.769531 3.6875 -58.0625 C 3.6875 -60.363281 4.515625 -62.34375 6.171875 -64 Z M 4.8125 -41.09375 L 4.8125 0 L 18.984375 0 L 18.984375 -41.09375 Z M 4.8125 -41.09375 "/></g></g></g><g fill="#000000" fill-opacity="1"><g transform="translate(89.144059, 167.289539)"><g><path d="M 4.8125 0 L 4.8125 -41.09375 L 18.984375 -41.09375 L 18.984375 -36.765625 L 19.140625 -36.765625 C 22.828125 -40.453125 26.753906 -42.296875 30.921875 -42.296875 C 32.941406 -42.296875 34.953125 -42.023438 36.953125 -41.484375 C 38.960938 -40.953125 40.890625 -40.125 42.734375 -39 C 44.578125 -37.882812 46.070312 -36.296875 47.21875 -34.234375 C 48.363281 -32.179688 48.9375 -29.796875 48.9375 -27.078125 L 48.9375 0 L 34.765625 0 L 34.765625 -23.234375 C 34.765625 -25.367188 34.082031 -27.234375 32.71875 -28.828125 C 31.351562 -30.429688 29.578125 -31.234375 27.390625 -31.234375 C 25.253906 -31.234375 23.316406 -30.40625 21.578125 -28.75 C 19.847656 -27.09375 18.984375 -25.253906 18.984375 -23.234375 L 18.984375 0 Z M 4.8125 0 "/></g></g></g><g fill="#000000" fill-opacity="1"><g transform="translate(134.551523, 167.289539)"><g><path d="M 4.8125 0 L 4.8125 -41.09375 L 18.984375 -41.09375 L 18.984375 -36.765625 L 19.140625 -36.765625 C 22.828125 -40.453125 26.753906 -42.296875 30.921875 -42.296875 C 32.941406 -42.296875 34.953125 -42.023438 36.953125 -41.484375 C 38.960938 -40.953125 40.890625 -40.125 42.734375 -39 C 44.578125 -37.882812 46.070312 -36.296875 47.21875 -34.234375 C 48.363281 -32.179688 48.9375 -29.796875 48.9375 -27.078125 L 48.9375 0 L 34.765625 0 L 34.765625 -23.234375 C 34.765625 -25.367188 34.082031 -27.234375 32.71875 -28.828125 C 31.351562 -30.429688 29.578125 -31.234375 27.390625 -31.234375 C 25.253906 -31.234375 23.316406 -30.40625 21.578125 -28.75 C 19.847656 -27.09375 18.984375 -25.253906 18.984375 -23.234375 L 18.984375 0 Z M 4.8125 0 "/></g></g></g><g fill="#000000" fill-opacity="1"><g transform="translate(179.958987, 167.289539)"><g><path d="M 8.6875 -4.875 C 4.125 -8.9375 1.84375 -14.144531 1.84375 -20.5 C 1.84375 -26.851562 4.21875 -32.070312 8.96875 -36.15625 C 13.71875 -40.25 19.59375 -42.296875 26.59375 -42.296875 C 33.476562 -42.296875 39.28125 -40.238281 44 -36.125 C 48.726562 -32.007812 51.09375 -26.800781 51.09375 -20.5 C 51.09375 -14.195312 48.785156 -9.003906 44.171875 -4.921875 C 39.554688 -0.835938 33.695312 1.203125 26.59375 1.203125 C 19.21875 1.203125 13.25 -0.820312 8.6875 -4.875 Z M 19.65625 -27.46875 C 17.820312 -25.65625 16.90625 -23.332031 16.90625 -20.5 C 16.90625 -17.675781 17.785156 -15.367188 19.546875 -13.578125 C 21.304688 -11.785156 23.628906 -10.890625 26.515625 -10.890625 C 29.285156 -10.890625 31.566406 -11.796875 33.359375 -13.609375 C 35.148438 -15.429688 36.046875 -17.726562 36.046875 -20.5 C 36.046875 -23.332031 35.125 -25.65625 33.28125 -27.46875 C 31.4375 -29.289062 29.179688 -30.203125 26.515625 -30.203125 C 23.785156 -30.203125 21.5 -29.289062 19.65625 -27.46875 Z M 19.65625 -27.46875 "/></g></g></g><g fill="#ff9800" fill-opacity="1"><g transform="translate(72.487435, 219.789535)"><g><path d="M 30.03125 0 L 20.421875 0 L -1.609375 -41.09375 L 14.734375 -41.09375 L 24.75 -18.90625 L 34.59375 -41.09375 L 44.375 -41.09375 L 54.21875 -18.90625 L 64.234375 -41.09375 L 80.578125 -41.09375 L 58.546875 0 L 48.9375 0 L 39.484375 -21.21875 Z M 30.03125 0 "/></g></g></g><g fill="#ff9800" fill-opacity="1"><g transform="translate(143.922824, 219.789535)"><g><path d="M 8.6875 -4.875 C 4.125 -8.9375 1.84375 -14.144531 1.84375 -20.5 C 1.84375 -26.851562 4.21875 -32.070312 8.96875 -36.15625 C 13.71875 -40.25 19.59375 -42.296875 26.59375 -42.296875 C 33.476562 -42.296875 39.28125 -40.238281 44 -36.125 C 48.726562 -32.007812 51.09375 -26.800781 51.09375 -20.5 C 51.09375 -14.195312 48.785156 -9.003906 44.171875 -4.921875 C 39.554688 -0.835938 33.695312 1.203125 26.59375 1.203125 C 19.21875 1.203125 13.25 -0.820312 8.6875 -4.875 Z M 19.65625 -27.46875 C 17.820312 -25.65625 16.90625 -23.332031 16.90625 -20.5 C 16.90625 -17.675781 17.785156 -15.367188 19.546875 -13.578125 C 21.304688 -11.785156 23.628906 -10.890625 26.515625 -10.890625 C 29.285156 -10.890625 31.566406 -11.796875 33.359375 -13.609375 C 35.148438 -15.429688 36.046875 -17.726562 36.046875 -20.5 C 36.046875 -23.332031 35.125 -25.65625 33.28125 -27.46875 C 31.4375 -29.289062 29.179688 -30.203125 26.515625 -30.203125 C 23.785156 -30.203125 21.5 -29.289062 19.65625 -27.46875 Z M 19.65625 -27.46875 "/></g></g></g><g fill="#ff9800" fill-opacity="1"><g transform="translate(189.330288, 219.789535)"><g><path d="M 8.6875 -4.875 C 4.125 -8.9375 1.84375 -14.144531 1.84375 -20.5 C 1.84375 -26.851562 4.21875 -32.070312 8.96875 -36.15625 C 13.71875 -40.25 19.59375 -42.296875 26.59375 -42.296875 C 33.476562 -42.296875 39.28125 -40.238281 44 -36.125 C 48.726562 -32.007812 51.09375 -26.800781 51.09375 -20.5 C 51.09375 -14.195312 48.785156 -9.003906 44.171875 -4.921875 C 39.554688 -0.835938 33.695312 1.203125 26.59375 1.203125 C 19.21875 1.203125 13.25 -0.820312 8.6875 -4.875 Z M 19.65625 -27.46875 C 17.820312 -25.65625 16.90625 -23.332031 16.90625 -20.5 C 16.90625 -17.675781 17.785156 -15.367188 19.546875 -13.578125 C 21.304688 -11.785156 23.628906 -10.890625 26.515625 -10.890625 C 29.285156 -10.890625 31.566406 -11.796875 33.359375 -13.609375 C 35.148438 -15.429688 36.046875 -17.726562 36.046875 -20.5 C 36.046875 -23.332031 35.125 -25.65625 33.28125 -27.46875 C 31.4375 -29.289062 29.179688 -30.203125 26.515625 -30.203125 C 23.785156 -30.203125 21.5 -29.289062 19.65625 -27.46875 Z M 19.65625 -27.46875 "/></g></g></g><g fill="#ff9800" fill-opacity="1"><g transform="translate(234.737752, 219.789535)"><g><path d="M 7.609375 -5.078125 C 3.765625 -9.273438 1.84375 -14.414062 1.84375 -20.5 C 1.84375 -26.59375 3.765625 -31.75 7.609375 -35.96875 C 11.453125 -40.1875 16.335938 -42.296875 22.265625 -42.296875 C 27.710938 -42.296875 32.195312 -40.582031 35.71875 -37.15625 L 35.71875 -68.875 L 49.90625 -68.875 L 49.90625 0 L 35.875 0 L 35.875 -4.640625 L 35.71875 -4.640625 C 32.195312 -0.742188 27.710938 1.203125 22.265625 1.203125 C 16.335938 1.203125 11.453125 -0.890625 7.609375 -5.078125 Z M 19.65625 -27.46875 C 17.820312 -25.65625 16.90625 -23.332031 16.90625 -20.5 C 16.90625 -17.675781 17.785156 -15.367188 19.546875 -13.578125 C 21.304688 -11.785156 23.628906 -10.890625 26.515625 -10.890625 C 29.285156 -10.890625 31.566406 -11.796875 33.359375 -13.609375 C 35.148438 -15.429688 36.046875 -17.726562 36.046875 -20.5 C 36.046875 -23.332031 35.125 -25.65625 33.28125 -27.46875 C 31.4375 -29.289062 29.179688 -30.203125 26.515625 -30.203125 C 23.785156 -30.203125 21.5 -29.289062 19.65625 -27.46875 Z M 19.65625 -27.46875 "/></g></g></g><g fill="#000000" fill-opacity="1"><g transform="translate(281.913206, 219.789535)"><g><path d="M 13.9375 -17.140625 C 16.5 -17.140625 18.671875 -16.242188 20.453125 -14.453125 C 22.242188 -12.671875 23.140625 -10.492188 23.140625 -7.921875 C 23.140625 -5.421875 22.242188 -3.273438 20.453125 -1.484375 C 18.671875 0.304688 16.5 1.203125 13.9375 1.203125 C 11.425781 1.203125 9.273438 0.304688 7.484375 -1.484375 C 5.703125 -3.273438 4.8125 -5.421875 4.8125 -7.921875 C 4.8125 -10.492188 5.703125 -12.671875 7.484375 -14.453125 C 9.273438 -16.242188 11.425781 -17.140625 13.9375 -17.140625 Z M 13.9375 -17.140625 "/></g></g></g></svg>