<svg xmlns="http://www.w3.org/2000/svg" xmlns:xlink="http://www.w3.org/1999/xlink" width="500" zoomAndPan="magnify" viewBox="0 0 375 112.499997" height="150" preserveAspectRatio="xMidYMid meet" version="1.0"><defs><g/><clipPath id="195cb66e28"><path d="M 0.828125 0 L 374.167969 0 L 374.167969 112.003906 L 0.828125 112.003906 Z M 0.828125 0 " clip-rule="nonzero"/></clipPath></defs><g clip-path="url(#195cb66e28)"><path fill="#ffffff" d="M 0.828125 0 L 374.171875 0 L 374.171875 112.003906 L 0.828125 112.003906 Z M 0.828125 0 " fill-opacity="1" fill-rule="nonzero"/><path fill="#ffffff" d="M 0.828125 0 L 374.171875 0 L 374.171875 112.003906 L 0.828125 112.003906 Z M 0.828125 0 " fill-opacity="1" fill-rule="nonzero"/></g><g fill="#000000" fill-opacity="1"><g transform="translate(11.11271, 75.543528)"><g><path d="M 5.5625 -57.84375 C 7.0625 -59.34375 8.847656 -60.09375 10.921875 -60.09375 C 13.003906 -60.09375 14.789062 -59.34375 16.28125 -57.84375 C 17.78125 -56.351562 18.53125 -54.566406 18.53125 -52.484375 C 18.53125 -50.410156 17.78125 -48.625 16.28125 -47.125 C 14.789062 -45.632812 13.003906 -44.890625 10.921875 -44.890625 C 8.847656 -44.890625 7.0625 -45.632812 5.5625 -47.125 C 4.070312 -48.625 3.328125 -50.410156 3.328125 -52.484375 C 3.328125 -54.566406 4.070312 -56.351562 5.5625 -57.84375 Z M 4.34375 -37.140625 L 4.34375 0 L 17.15625 0 L 17.15625 -37.140625 Z M 4.34375 -37.140625 "/></g></g></g><g fill="#000000" fill-opacity="1"><g transform="translate(26.168424, 75.543528)"><g><path d="M 4.34375 0 L 4.34375 -37.140625 L 17.15625 -37.140625 L 17.15625 -33.234375 L 17.3125 -33.234375 C 20.632812 -36.566406 24.179688 -38.234375 27.953125 -38.234375 C 29.785156 -38.234375 31.601562 -37.988281 33.40625 -37.5 C 35.21875 -37.019531 36.957031 -36.269531 38.625 -35.25 C 40.289062 -34.238281 41.640625 -32.804688 42.671875 -30.953125 C 43.710938 -29.097656 44.234375 -26.9375 44.234375 -24.46875 L 44.234375 0 L 31.421875 0 L 31.421875 -21 C 31.421875 -22.925781 30.804688 -24.613281 29.578125 -26.0625 C 28.347656 -27.507812 26.742188 -28.234375 24.765625 -28.234375 C 22.828125 -28.234375 21.070312 -27.484375 19.5 -25.984375 C 17.9375 -24.492188 17.15625 -22.832031 17.15625 -21 L 17.15625 0 Z M 4.34375 0 "/></g></g></g><g fill="#000000" fill-opacity="1"><g transform="translate(67.213125, 75.543528)"><g><path d="M 4.34375 0 L 4.34375 -37.140625 L 17.15625 -37.140625 L 17.15625 -33.234375 L 17.3125 -33.234375 C 20.632812 -36.566406 24.179688 -38.234375 27.953125 -38.234375 C 29.785156 -38.234375 31.601562 -37.988281 33.40625 -37.5 C 35.21875 -37.019531 36.957031 -36.269531 38.625 -35.25 C 40.289062 -34.238281 41.640625 -32.804688 42.671875 -30.953125 C 43.710938 -29.097656 44.234375 -26.9375 44.234375 -24.46875 L 44.234375 0 L 31.421875 0 L 31.421875 -21 C 31.421875 -22.925781 30.804688 -24.613281 29.578125 -26.0625 C 28.347656 -27.507812 26.742188 -28.234375 24.765625 -28.234375 C 22.828125 -28.234375 21.070312 -27.484375 19.5 -25.984375 C 17.9375 -24.492188 17.15625 -22.832031 17.15625 -21 L 17.15625 0 Z M 4.34375 0 "/></g></g></g><g fill="#000000" fill-opacity="1"><g transform="translate(108.257827, 75.543528)"><g><path d="M 7.859375 -4.40625 C 3.734375 -8.082031 1.671875 -12.789062 1.671875 -18.53125 C 1.671875 -24.28125 3.816406 -29 8.109375 -32.6875 C 12.398438 -36.382812 17.707031 -38.234375 24.03125 -38.234375 C 30.257812 -38.234375 35.507812 -36.375 39.78125 -32.65625 C 44.050781 -28.9375 46.1875 -24.226562 46.1875 -18.53125 C 46.1875 -12.832031 44.097656 -8.132812 39.921875 -4.4375 C 35.753906 -0.75 30.457031 1.09375 24.03125 1.09375 C 17.375 1.09375 11.984375 -0.738281 7.859375 -4.40625 Z M 17.78125 -24.828125 C 16.113281 -23.191406 15.28125 -21.09375 15.28125 -18.53125 C 15.28125 -15.976562 16.078125 -13.890625 17.671875 -12.265625 C 19.265625 -10.648438 21.363281 -9.84375 23.96875 -9.84375 C 26.476562 -9.84375 28.539062 -10.660156 30.15625 -12.296875 C 31.769531 -13.941406 32.578125 -16.019531 32.578125 -18.53125 C 32.578125 -21.09375 31.742188 -23.191406 30.078125 -24.828125 C 28.421875 -26.472656 26.382812 -27.296875 23.96875 -27.296875 C 21.507812 -27.296875 19.445312 -26.472656 17.78125 -24.828125 Z M 17.78125 -24.828125 "/></g></g></g><g fill="#ff9800" fill-opacity="1"><g transform="translate(149.303387, 75.543528)"><g><path d="M 27.15625 0 L 18.46875 0 L -1.453125 -37.140625 L 13.328125 -37.140625 L 22.375 -17.09375 L 31.28125 -37.140625 L 40.109375 -37.140625 L 49.015625 -17.09375 L 58.0625 -37.140625 L 72.84375 -37.140625 L 52.921875 0 L 44.234375 0 L 35.703125 -19.1875 Z M 27.15625 0 "/></g></g></g><g fill="#ff9800" fill-opacity="1"><g transform="translate(213.875728, 75.543528)"><g><path d="M 7.859375 -4.40625 C 3.734375 -8.082031 1.671875 -12.789062 1.671875 -18.53125 C 1.671875 -24.28125 3.816406 -29 8.109375 -32.6875 C 12.398438 -36.382812 17.707031 -38.234375 24.03125 -38.234375 C 30.257812 -38.234375 35.507812 -36.375 39.78125 -32.65625 C 44.050781 -28.9375 46.1875 -24.226562 46.1875 -18.53125 C 46.1875 -12.832031 44.097656 -8.132812 39.921875 -4.4375 C 35.753906 -0.75 30.457031 1.09375 24.03125 1.09375 C 17.375 1.09375 11.984375 -0.738281 7.859375 -4.40625 Z M 17.78125 -24.828125 C 16.113281 -23.191406 15.28125 -21.09375 15.28125 -18.53125 C 15.28125 -15.976562 16.078125 -13.890625 17.671875 -12.265625 C 19.265625 -10.648438 21.363281 -9.84375 23.96875 -9.84375 C 26.476562 -9.84375 28.539062 -10.660156 30.15625 -12.296875 C 31.769531 -13.941406 32.578125 -16.019531 32.578125 -18.53125 C 32.578125 -21.09375 31.742188 -23.191406 30.078125 -24.828125 C 28.421875 -26.472656 26.382812 -27.296875 23.96875 -27.296875 C 21.507812 -27.296875 19.445312 -26.472656 17.78125 -24.828125 Z M 17.78125 -24.828125 "/></g></g></g><g fill="#ff9800" fill-opacity="1"><g transform="translate(254.92043, 75.543528)"><g><path d="M 7.859375 -4.40625 C 3.734375 -8.082031 1.671875 -12.789062 1.671875 -18.53125 C 1.671875 -24.28125 3.816406 -29 8.109375 -32.6875 C 12.398438 -36.382812 17.707031 -38.234375 24.03125 -38.234375 C 30.257812 -38.234375 35.507812 -36.375 39.78125 -32.65625 C 44.050781 -28.9375 46.1875 -24.226562 46.1875 -18.53125 C 46.1875 -12.832031 44.097656 -8.132812 39.921875 -4.4375 C 35.753906 -0.75 30.457031 1.09375 24.03125 1.09375 C 17.375 1.09375 11.984375 -0.738281 7.859375 -4.40625 Z M 17.78125 -24.828125 C 16.113281 -23.191406 15.28125 -21.09375 15.28125 -18.53125 C 15.28125 -15.976562 16.078125 -13.890625 17.671875 -12.265625 C 19.265625 -10.648438 21.363281 -9.84375 23.96875 -9.84375 C 26.476562 -9.84375 28.539062 -10.660156 30.15625 -12.296875 C 31.769531 -13.941406 32.578125 -16.019531 32.578125 -18.53125 C 32.578125 -21.09375 31.742188 -23.191406 30.078125 -24.828125 C 28.421875 -26.472656 26.382812 -27.296875 23.96875 -27.296875 C 21.507812 -27.296875 19.445312 -26.472656 17.78125 -24.828125 Z M 17.78125 -24.828125 "/></g></g></g><g fill="#ff9800" fill-opacity="1"><g transform="translate(295.965124, 75.543528)"><g><path d="M 6.875 -4.59375 C 3.40625 -8.382812 1.671875 -13.03125 1.671875 -18.53125 C 1.671875 -24.039062 3.40625 -28.703125 6.875 -32.515625 C 10.351562 -36.328125 14.769531 -38.234375 20.125 -38.234375 C 25.050781 -38.234375 29.109375 -36.6875 32.296875 -33.59375 L 32.296875 -62.265625 L 45.109375 -62.265625 L 45.109375 0 L 32.4375 0 L 32.4375 -4.203125 L 32.296875 -4.203125 C 29.109375 -0.671875 25.050781 1.09375 20.125 1.09375 C 14.769531 1.09375 10.351562 -0.800781 6.875 -4.59375 Z M 17.78125 -24.828125 C 16.113281 -23.191406 15.28125 -21.09375 15.28125 -18.53125 C 15.28125 -15.976562 16.078125 -13.890625 17.671875 -12.265625 C 19.265625 -10.648438 21.363281 -9.84375 23.96875 -9.84375 C 26.476562 -9.84375 28.539062 -10.660156 30.15625 -12.296875 C 31.769531 -13.941406 32.578125 -16.019531 32.578125 -18.53125 C 32.578125 -21.09375 31.742188 -23.191406 30.078125 -24.828125 C 28.421875 -26.472656 26.382812 -27.296875 23.96875 -27.296875 C 21.507812 -27.296875 19.445312 -26.472656 17.78125 -24.828125 Z M 17.78125 -24.828125 "/></g></g></g><g fill="#000000" fill-opacity="1"><g transform="translate(338.611364, 75.543528)"><g><path d="M 12.59375 -15.5 C 14.914062 -15.5 16.882812 -14.6875 18.5 -13.0625 C 20.113281 -11.445312 20.921875 -9.484375 20.921875 -7.171875 C 20.921875 -4.898438 20.113281 -2.953125 18.5 -1.328125 C 16.882812 0.285156 14.914062 1.09375 12.59375 1.09375 C 10.332031 1.09375 8.390625 0.285156 6.765625 -1.328125 C 5.148438 -2.953125 4.34375 -4.898438 4.34375 -7.171875 C 4.34375 -9.484375 5.148438 -11.445312 6.765625 -13.0625 C 8.390625 -14.6875 10.332031 -15.5 12.59375 -15.5 Z M 12.59375 -15.5 "/></g></g></g></svg>